G04*
G04 #@! TF.GenerationSoftware,Altium Limited,Altium Designer,24.1.2 (44)*
G04*
G04 Layer_Physical_Order=1*
G04 Layer_Color=255*
%FSLAX44Y44*%
%MOMM*%
G71*
G04*
G04 #@! TF.SameCoordinates,88338F56-DE7A-4AE7-A4E1-60EBC265CD24*
G04*
G04*
G04 #@! TF.FilePolarity,Positive*
G04*
G01*
G75*
%ADD19C,0.2540*%
%ADD20R,0.6000X1.7000*%
%ADD21R,1.0000X2.7000*%
%ADD22R,1.7000X0.6000*%
%ADD23R,2.7000X1.0000*%
%ADD24R,2.8000X2.8000*%
%ADD25C,2.8000*%
%ADD26R,2.8000X2.8000*%
G36*
X591339Y510420D02*
X596252Y508930D01*
X600780Y506510D01*
X604748Y503252D01*
X608005Y499284D01*
X610426Y494756D01*
X611916Y489843D01*
X612395Y484982D01*
X612345Y484734D01*
Y314734D01*
X612395Y314486D01*
X611916Y309625D01*
X610426Y304712D01*
X608005Y300184D01*
X604748Y296215D01*
X600780Y292959D01*
X596252Y290538D01*
X591339Y289048D01*
X586478Y288569D01*
X586230Y288619D01*
X346230D01*
X345982Y288569D01*
X341121Y289048D01*
X336208Y290538D01*
X331680Y292959D01*
X327711Y296215D01*
X324454Y300184D01*
X322034Y304712D01*
X320544Y309625D01*
X320065Y314486D01*
X320115Y314734D01*
Y484734D01*
X320065Y484982D01*
X320544Y489843D01*
X322034Y494756D01*
X324454Y499284D01*
X327711Y503252D01*
X331680Y506510D01*
X336208Y508930D01*
X341121Y510420D01*
X345982Y510899D01*
X346230Y510849D01*
X586230D01*
X586478Y510899D01*
X591339Y510420D01*
D02*
G37*
%LPC*%
G36*
X585410Y495540D02*
X552330D01*
Y462460D01*
X585410D01*
Y495540D01*
D02*
G37*
G36*
X386423D02*
X353344D01*
Y462460D01*
X386423D01*
Y495540D01*
D02*
G37*
G36*
X507602Y478415D02*
X474522D01*
Y445335D01*
X507602D01*
Y478415D01*
D02*
G37*
G36*
X566784Y372893D02*
X544704D01*
Y371237D01*
X489812D01*
X488325Y370942D01*
X487065Y370100D01*
X474565Y357600D01*
X473723Y356339D01*
X473427Y354853D01*
Y346878D01*
X471772D01*
Y324798D01*
X482852D01*
Y346878D01*
X481197D01*
Y353244D01*
X491421Y363468D01*
X544704D01*
Y361813D01*
X566784D01*
Y372893D01*
D02*
G37*
G36*
Y360393D02*
X544704D01*
Y358737D01*
X494827D01*
X493340Y358442D01*
X492080Y357600D01*
X487065Y352585D01*
X486223Y351325D01*
X485927Y349838D01*
Y346878D01*
X484272D01*
Y324798D01*
X495352D01*
Y346878D01*
X493697D01*
Y348229D01*
X496436Y350968D01*
X544704D01*
Y349313D01*
X566784D01*
Y360393D01*
D02*
G37*
G36*
X394050Y372893D02*
X371970D01*
Y361813D01*
X394050D01*
Y363468D01*
X450703D01*
X460927Y353244D01*
Y346878D01*
X459272D01*
Y324798D01*
X470352D01*
Y346878D01*
X468697D01*
Y354853D01*
X468401Y356339D01*
X467559Y357600D01*
X455059Y370100D01*
X453799Y370942D01*
X452312Y371237D01*
X394050D01*
Y372893D01*
D02*
G37*
G36*
Y360393D02*
X371970D01*
Y349313D01*
X394050D01*
Y350968D01*
X446938D01*
X448427Y349479D01*
Y346878D01*
X446772D01*
Y324798D01*
X457852D01*
Y346878D01*
X456197D01*
Y351088D01*
X455901Y352575D01*
X455059Y353835D01*
X451294Y357600D01*
X450034Y358442D01*
X448547Y358737D01*
X394050D01*
Y360393D01*
D02*
G37*
%LPD*%
D19*
X616230Y484734D02*
G03*
X586230Y514734I-30000J0D01*
G01*
Y284734D02*
G03*
X616230Y314734I0J30000D01*
G01*
X346230Y514734D02*
G03*
X316230Y484734I0J-30000D01*
G01*
Y314734D02*
G03*
X346230Y284734I30000J0D01*
G01*
X586230D01*
X346230Y514734D02*
X586230D01*
X616230Y314734D02*
Y484734D01*
X316230Y314734D02*
Y484734D01*
X477312Y335838D02*
Y354853D01*
X489812Y367353D01*
X555744D01*
X489812Y335838D02*
Y349838D01*
X494827Y354853D02*
X555744D01*
X489812Y349838D02*
X494827Y354853D01*
X464812Y335838D02*
Y354853D01*
X452312Y367353D02*
X464812Y354853D01*
X383010Y367353D02*
X452312D01*
Y335838D02*
Y351088D01*
X448547Y354853D02*
X452312Y351088D01*
X383010Y354853D02*
X448547D01*
D20*
X452312Y335838D02*
D03*
X464812D02*
D03*
X477312D02*
D03*
X489812D02*
D03*
D21*
X433812Y303838D02*
D03*
X508312D02*
D03*
D22*
X555744Y354853D02*
D03*
Y367353D02*
D03*
X383010D02*
D03*
Y354853D02*
D03*
D23*
X587744Y385853D02*
D03*
Y336353D02*
D03*
X351010D02*
D03*
Y385853D02*
D03*
D24*
X491062Y461875D02*
D03*
D25*
X441062D02*
D03*
X369883Y429000D02*
D03*
X568870D02*
D03*
D26*
X369883Y479000D02*
D03*
X568870D02*
D03*
M02*
