G04*
G04 #@! TF.GenerationSoftware,Altium Limited,Altium Designer,24.1.2 (44)*
G04*
G04 Layer_Color=65535*
%FSLAX44Y44*%
%MOMM*%
G71*
G04*
G04 #@! TF.SameCoordinates,88338F56-DE7A-4AE7-A4E1-60EBC265CD24*
G04*
G04*
G04 #@! TF.FilePolarity,Positive*
G04*
G01*
G75*
%ADD10C,0.2500*%
%ADD11C,0.2000*%
D10*
X453562Y349838D02*
G03*
X453562Y349838I-1250J0D01*
G01*
X542994Y354853D02*
G03*
X542994Y354853I-1250J0D01*
G01*
X398260Y367353D02*
G03*
X398260Y367353I-1250J0D01*
G01*
D11*
X517062Y482877D02*
G03*
X512062Y487877I-5000J0D01*
G01*
X512062Y435877D02*
G03*
X517062Y440877I0J5000D01*
G01*
X415062Y453877D02*
G03*
X433062Y435877I18000J0D01*
G01*
Y487877D02*
G03*
X415062Y469877I0J-18000D01*
G01*
X348882Y505000D02*
G03*
X343882Y500000I0J-5000D01*
G01*
X395882Y500000D02*
G03*
X390882Y505000I-5000J0D01*
G01*
X377882Y403000D02*
G03*
X395882Y421000I0J18000D01*
G01*
X343882D02*
G03*
X361881Y403000I18000J0D01*
G01*
X547869Y505000D02*
G03*
X542869Y500000I0J-5000D01*
G01*
X594869Y500000D02*
G03*
X589869Y505000I-5000J0D01*
G01*
X576869Y403000D02*
G03*
X594869Y421000I0J18000D01*
G01*
X542868D02*
G03*
X560868Y403000I18000J0D01*
G01*
X429812Y333338D02*
X445312D01*
X429812Y321338D02*
Y333338D01*
X442812Y292838D02*
X499312D01*
X512312Y321338D02*
Y333338D01*
X496812D02*
X512312D01*
X598744Y345353D02*
Y376853D01*
X558244Y374353D02*
Y389853D01*
Y332353D02*
X570244D01*
X558244D02*
Y347853D01*
Y389853D02*
X570244D01*
X340010Y345353D02*
Y376853D01*
X380510Y332353D02*
Y347853D01*
X368510Y389853D02*
X380510D01*
Y374353D02*
Y389853D01*
X368510Y332353D02*
X380510D01*
X433062Y487877D02*
X512062D01*
X415062Y453876D02*
Y469877D01*
X433062Y435877D02*
X512062D01*
X517062Y440876D02*
Y482877D01*
X343882Y421000D02*
Y500000D01*
X361881Y403000D02*
X377882D01*
X395882Y421000D02*
Y500000D01*
X348882Y505000D02*
X390882D01*
X542869Y421000D02*
Y500000D01*
X560868Y403000D02*
X576869D01*
X594869Y421000D02*
Y500000D01*
X547868Y505000D02*
X589869D01*
M02*
