G04*
G04 #@! TF.GenerationSoftware,Altium Limited,Altium Designer,24.1.2 (44)*
G04*
G04 Layer_Physical_Order=2*
G04 Layer_Color=16711680*
%FSLAX44Y44*%
%MOMM*%
G71*
G04*
G04 #@! TF.SameCoordinates,88338F56-DE7A-4AE7-A4E1-60EBC265CD24*
G04*
G04*
G04 #@! TF.FilePolarity,Positive*
G04*
G01*
G75*
%ADD24R,2.8000X2.8000*%
%ADD25C,2.8000*%
%ADD26R,2.8000X2.8000*%
G36*
X592095Y514221D02*
X595894Y513203D01*
X599527Y511698D01*
X602933Y509732D01*
X606053Y507338D01*
X608834Y504557D01*
X611228Y501437D01*
X613194Y498031D01*
X614699Y494398D01*
X615717Y490599D01*
X616230Y486700D01*
Y484734D01*
Y314734D01*
Y312768D01*
X615717Y308869D01*
X614699Y305070D01*
X613194Y301437D01*
X611228Y298031D01*
X608834Y294911D01*
X606053Y292130D01*
X602933Y289736D01*
X599527Y287770D01*
X595894Y286265D01*
X592095Y285247D01*
X588196Y284734D01*
X344264D01*
X340365Y285247D01*
X336566Y286265D01*
X332933Y287770D01*
X329527Y289736D01*
X326407Y292130D01*
X323626Y294911D01*
X321232Y298031D01*
X319266Y301437D01*
X317761Y305070D01*
X316743Y308869D01*
X316230Y312768D01*
Y314734D01*
Y484734D01*
Y486700D01*
X316743Y490599D01*
X317761Y494398D01*
X319266Y498031D01*
X321232Y501437D01*
X323626Y504557D01*
X326407Y507338D01*
X329527Y509732D01*
X332933Y511698D01*
X336566Y513203D01*
X340365Y514221D01*
X344264Y514734D01*
X588196D01*
X592095Y514221D01*
D02*
G37*
%LPC*%
G36*
X441062Y478495D02*
X437820Y478176D01*
X434702Y477230D01*
X431828Y475694D01*
X429310Y473627D01*
X427243Y471109D01*
X425707Y468235D01*
X424761Y465117D01*
X424442Y461875D01*
X424761Y458633D01*
X425707Y455515D01*
X427243Y452641D01*
X429310Y450123D01*
X431828Y448056D01*
X434702Y446520D01*
X437820Y445574D01*
X441062Y445255D01*
X444304Y445574D01*
X447422Y446520D01*
X450296Y448056D01*
X452814Y450123D01*
X454881Y452641D01*
X456417Y455515D01*
X457363Y458633D01*
X457682Y461875D01*
X457363Y465117D01*
X456417Y468235D01*
X454881Y471109D01*
X452814Y473627D01*
X450296Y475694D01*
X447422Y477230D01*
X444304Y478176D01*
X441062Y478495D01*
D02*
G37*
G36*
X568870Y445620D02*
X565628Y445301D01*
X562510Y444355D01*
X559637Y442819D01*
X557118Y440752D01*
X555051Y438234D01*
X553516Y435360D01*
X552570Y432242D01*
X552250Y429000D01*
X552570Y425758D01*
X553516Y422640D01*
X555051Y419766D01*
X557118Y417248D01*
X559637Y415181D01*
X562510Y413645D01*
X565628Y412699D01*
X568870Y412380D01*
X572113Y412699D01*
X575231Y413645D01*
X578104Y415181D01*
X580623Y417248D01*
X582690Y419766D01*
X584225Y422640D01*
X585171Y425758D01*
X585490Y429000D01*
X585171Y432242D01*
X584225Y435360D01*
X582690Y438234D01*
X580623Y440752D01*
X578104Y442819D01*
X575231Y444355D01*
X572113Y445301D01*
X568870Y445620D01*
D02*
G37*
G36*
X369883D02*
X366641Y445301D01*
X363523Y444355D01*
X360650Y442819D01*
X358131Y440752D01*
X356064Y438234D01*
X354529Y435360D01*
X353583Y432242D01*
X353264Y429000D01*
X353583Y425758D01*
X354529Y422640D01*
X356064Y419766D01*
X358131Y417248D01*
X360650Y415181D01*
X363523Y413645D01*
X366641Y412699D01*
X369883Y412380D01*
X373126Y412699D01*
X376244Y413645D01*
X379117Y415181D01*
X381636Y417248D01*
X383703Y419766D01*
X385238Y422640D01*
X386184Y425758D01*
X386504Y429000D01*
X386184Y432242D01*
X385238Y435360D01*
X383703Y438234D01*
X381636Y440752D01*
X379117Y442819D01*
X376244Y444355D01*
X373126Y445301D01*
X369883Y445620D01*
D02*
G37*
%LPD*%
D24*
X491062Y461875D02*
D03*
D25*
X441062D02*
D03*
X369883Y429000D02*
D03*
X568870D02*
D03*
D26*
X369883Y479000D02*
D03*
X568870D02*
D03*
M02*
